<?xml version="1.0" standalone="no"?>
<!DOCTYPE svg PUBLIC "-//W3C//DTD SVG 20010904//EN"
 "http://www.w3.org/TR/2001/REC-SVG-20010904/DTD/svg10.dtd">
<svg version="1.0" xmlns="http://www.w3.org/2000/svg"
 width="1920.000000pt" height="1920.000000pt" viewBox="0 0 1920.000000 1920.000000"
 preserveAspectRatio="xMidYMid meet">

<g transform="translate(0.000000,1920.000000) scale(0.100000,-0.100000)"
fill="#FFFFFF" stroke="none">
<path d="M9080 18389 c-2167 -134 -4180 -1039 -5705 -2564 -1532 -1531 -2433
-3543 -2565 -5725 -13 -213 -13 -787 0 -1000 132 -2182 1033 -4194 2565 -5725
1531 -1532 3543 -2433 5725 -2565 213 -13 787 -13 1000 0 2182 132 4194 1033
5725 2565 1532 1531 2433 3543 2565 5725 13 213 13 787 0 1000 -132 2182
-1033 4194 -2565 5725 -1531 1532 -3543 2433 -5725 2565 -188 11 -833 11
-1020 -1z m1020 -3109 c246 -31 370 -50 490 -75 36 -7 92 -18 125 -25 33 -7
80 -18 105 -25 25 -7 68 -18 95 -25 185 -45 614 -193 724 -250 9 -5 34 -16 56
-25 207 -89 505 -254 573 -318 52 -50 132 -164 132 -190 0 -8 3 -17 7 -21 4
-3 15 -37 25 -74 79 -300 -120 -624 -430 -698 -159 -38 -290 -10 -497 106
-221 124 -558 264 -790 328 -408 113 -743 162 -1115 162 -260 0 -594 -35 -820
-87 -36 -8 -85 -19 -110 -25 -25 -5 -65 -16 -90 -23 -25 -7 -65 -18 -90 -25
-258 -73 -524 -184 -830 -347 -144 -76 -185 -88 -320 -87 -99 1 -125 5 -187
28 -180 67 -292 183 -361 376 -20 57 -23 267 -4 325 49 149 151 273 292 355
76 44 352 183 425 215 22 9 47 20 56 25 8 4 51 22 95 40 43 17 88 35 99 40 91
38 401 138 525 170 19 4 62 15 95 24 33 8 85 20 115 27 30 6 82 17 115 24 33
8 94 19 135 25 41 6 100 15 130 21 90 15 246 31 380 39 165 11 742 4 850 -10z
m-5478 -6 c35 -9 67 -20 73 -25 5 -5 15 -9 22 -9 8 0 40 -16 71 -36 40 -25
1620 -1598 5211 -5187 5093 -5092 5241 -5242 5241 -5299 0 -8 4 -18 9 -24 17
-18 41 -136 41 -206 0 -315 -260 -576 -577 -578 -70 0 -189 23 -207 41 -6 5
-16 9 -24 9 -56 0 -187 128 -2187 2129 -1122 1123 -2043 2041 -2047 2041 -13
0 -9 -102 6 -181 8 -41 19 -108 26 -149 31 -198 101 -520 146 -675 8 -27 21
-75 29 -105 33 -126 144 -469 184 -569 10 -25 31 -77 46 -116 27 -70 37 -95
61 -150 7 -16 19 -46 27 -65 87 -206 256 -549 345 -700 11 -19 29 -51 40 -70
11 -19 28 -51 39 -71 38 -66 170 -273 248 -389 121 -180 145 -245 145 -403 0
-119 -13 -178 -58 -265 -121 -233 -398 -360 -646 -296 -178 46 -271 126 -437
377 -66 98 -119 181 -119 184 0 3 -11 21 -25 39 -14 18 -25 35 -25 39 0 3 -15
29 -33 58 -18 29 -36 59 -40 67 -7 15 -15 28 -48 80 -16 24 -35 59 -104 185
-48 88 -216 422 -244 485 -13 30 -36 82 -51 115 -33 71 -124 289 -144 342 -64
174 -77 210 -86 228 -10 21 -118 352 -146 445 -9 30 -20 66 -24 80 -10 32 -59
214 -70 260 -5 19 -15 62 -24 95 -8 33 -19 80 -25 105 -5 25 -16 74 -24 110
-60 259 -120 642 -147 925 -37 397 -40 455 -40 825 l0 385 -545 545 c-375 375
-548 541 -555 534 -6 -6 -15 -80 -20 -165 -11 -177 -17 -232 -31 -274 -23 -68
-77 -161 -122 -211 -50 -55 -173 -144 -199 -144 -8 0 -18 -3 -22 -7 -3 -4 -37
-15 -74 -25 -188 -49 -397 10 -540 154 -121 122 -172 255 -172 450 0 149 33
431 65 558 8 30 21 85 30 121 15 67 73 250 95 304 7 17 23 54 36 82 13 29 26
63 29 75 5 20 -55 83 -405 433 -357 357 -411 408 -424 395 -30 -33 -155 -279
-231 -455 -36 -86 -102 -263 -126 -340 -7 -22 -18 -58 -24 -80 -13 -39 -18
-58 -49 -180 -39 -155 -70 -335 -97 -560 -15 -127 -27 -1259 -17 -1675 11
-501 51 -987 114 -1400 8 -52 19 -126 25 -165 5 -38 16 -104 24 -145 8 -41 19
-106 25 -145 6 -38 18 -97 25 -130 7 -33 18 -87 25 -120 6 -33 18 -87 25 -120
8 -33 19 -82 24 -110 6 -27 20 -88 32 -135 11 -47 25 -103 30 -125 4 -22 16
-67 25 -100 9 -33 24 -91 35 -130 10 -38 25 -92 33 -120 70 -238 78 -304 56
-438 -34 -208 -241 -413 -452 -448 -80 -14 -241 -5 -293 16 -130 52 -215 115
-284 209 -61 83 -74 119 -151 396 -7 25 -18 65 -25 90 -7 25 -23 86 -35 135
-12 50 -28 110 -35 135 -7 25 -18 70 -24 100 -7 30 -18 80 -26 110 -7 30 -19
82 -25 115 -7 33 -18 85 -25 115 -8 30 -18 80 -24 110 -5 30 -17 91 -26 135
-19 95 -30 157 -44 245 -6 36 -17 106 -25 155 -8 50 -20 122 -25 160 -6 39
-17 117 -25 175 -8 58 -20 150 -25 205 -6 55 -17 161 -25 235 -15 133 -24 248
-48 610 -9 130 -12 434 -11 1020 3 1010 10 1130 84 1565 17 99 51 255 75 345
8 30 19 71 24 90 17 66 62 215 82 270 10 30 27 80 38 110 10 30 23 69 30 85 7
17 16 39 20 50 87 219 187 433 281 600 21 39 44 79 49 90 5 11 44 74 85 140
42 66 81 130 87 143 11 22 -24 59 -644 680 -619 620 -728 737 -728 785 0 7 -4
17 -9 23 -17 18 -41 136 -41 206 0 148 64 301 170 407 141 141 354 202 542
155z m5303 -2275 c55 -6 129 -17 165 -24 36 -7 92 -19 125 -25 33 -7 80 -18
105 -25 25 -7 65 -18 90 -25 25 -7 56 -17 70 -22 14 -6 50 -18 80 -28 119 -38
293 -119 480 -221 42 -23 283 -186 312 -211 14 -13 57 -49 95 -80 76 -63 288
-278 343 -347 19 -24 47 -58 61 -75 207 -248 426 -696 508 -1041 7 -27 17 -67
22 -88 15 -56 27 -131 49 -307 17 -131 20 -215 20 -555 0 -366 -2 -406 -19
-468 -29 -99 -69 -171 -136 -245 -71 -78 -134 -120 -233 -156 -63 -22 -89 -26
-187 -26 -101 0 -124 3 -194 29 -79 29 -151 71 -205 120 -43 40 -109 139 -141
211 l-28 65 -8 430 c-4 237 -10 450 -13 475 -12 80 -27 164 -38 210 -13 54
-64 213 -77 238 -5 9 -26 53 -47 97 -93 195 -167 299 -334 465 -110 111 -131
128 -253 209 -253 168 -502 254 -817 281 -99 8 -155 7 -270 -4 -80 -8 -163
-21 -185 -28 -65 -20 -280 -17 -340 5 -133 49 -223 113 -294 211 -35 49 -43
65 -71 131 -96 231 -12 524 194 674 70 51 138 81 231 100 28 6 72 15 98 21
194 43 591 56 842 29z m3755 -3 c69 -21 100 -37 167 -83 70 -49 148 -133 178
-190 11 -21 42 -76 69 -123 47 -82 167 -317 198 -390 9 -19 25 -55 36 -80 103
-233 211 -560 277 -835 56 -234 68 -302 109 -610 39 -291 45 -680 16 -1040
-14 -176 -7 -824 10 -950 25 -180 63 -356 107 -500 26 -84 49 -148 64 -177 5
-10 9 -22 9 -28 0 -17 102 -232 181 -380 55 -102 69 -162 69 -287 0 -93 -4
-121 -26 -184 -33 -91 -76 -159 -140 -220 -186 -178 -431 -217 -664 -105 -80
38 -212 166 -254 246 -76 146 -156 305 -170 340 -8 22 -24 58 -35 82 -126 284
-238 701 -280 1043 -34 271 -36 441 -15 1525 6 306 1 392 -37 645 -43 294
-133 616 -254 910 -6 17 -18 46 -25 65 -22 56 -170 349 -212 418 -86 141 -108
212 -108 351 0 164 38 269 139 383 69 77 163 137 276 176 46 15 262 14 315 -2z
m-6222 -4540 c106 -23 188 -70 277 -160 123 -123 148 -189 186 -486 21 -168
50 -363 55 -371 2 -4 8 -35 14 -70 23 -145 72 -379 110 -529 5 -19 19 -73 31
-120 41 -168 57 -227 67 -261 6 -19 23 -74 38 -124 26 -89 84 -273 105 -330 5
-16 23 -68 39 -115 33 -97 76 -216 89 -245 5 -11 21 -51 36 -90 14 -38 31 -78
36 -87 5 -10 9 -22 9 -28 0 -5 11 -34 25 -65 14 -30 36 -80 50 -110 14 -31 25
-58 25 -61 0 -7 71 -158 199 -425 61 -128 71 -169 71 -296 0 -96 -4 -122 -26
-185 -82 -228 -280 -374 -519 -386 -169 -8 -304 46 -430 173 -84 83 -101 112
-233 395 -105 225 -128 278 -207 470 -37 91 -73 179 -80 195 -6 17 -18 46 -25
65 -7 19 -18 49 -25 65 -7 17 -25 64 -39 105 -14 41 -39 113 -56 160 -17 47
-35 99 -40 115 -4 17 -21 71 -37 120 -52 157 -109 346 -144 480 -6 22 -16 63
-24 90 -7 28 -18 68 -23 90 -6 22 -17 67 -26 100 -8 33 -19 80 -25 105 -5 25
-16 74 -24 110 -9 36 -21 92 -27 125 -7 33 -18 89 -25 125 -21 104 -34 170
-45 245 -7 39 -18 108 -25 155 -8 47 -19 117 -24 155 -5 39 -17 120 -25 180
-9 61 -16 137 -16 170 1 57 28 186 43 201 4 4 7 14 7 22 0 42 177 252 212 252
5 0 25 10 46 23 35 22 69 34 152 56 52 14 177 12 248 -3z"/>
</g>
</svg>
